<svg xmlns="http://www.w3.org/2000/svg" xmlns:xlink="http://www.w3.org/1999/xlink" version="1.1" id="Capa_1" x="0px" y="0px" width="100px" height="100px" viewBox="0 0 100 100" enable-background="new 0 0 100 100" xml:space="preserve">
<path d="M70.893,14.909c-1.383-1.732-3.584-5.251-3.584-6.758c0.011-0.895,0.032-1.059,0.032-1.059s0.418-0.049,0.422-0.3  c0.003-0.251,0.047-0.697-0.359-0.697c-0.408,0-18.183,0-18.183,0s-17.775,0-18.182,0c-0.407,0-0.363,0.445-0.36,0.697  c0.003,0.251,0.421,0.3,0.421,0.3s0.022,0.164,0.033,1.059c0,1.507-2.202,5.025-3.583,6.758c-1.383,1.731-1.263,2.692-1.263,2.692  s0,68.241,0,69.092c0,0.852,0.458,1.233,2.02,2.03c1.561,0.798,2.413,2.98,2.762,3.613c0.35,0.633,0.813,0.557,0.813,0.557h17.341  h17.341c0,0,0.464,0.076,0.812-0.557c0.35-0.633,1.201-2.815,2.763-3.613c1.561-0.797,2.019-1.179,2.019-2.03  c0-0.851,0-69.092,0-69.092S72.275,16.641,70.893,14.909z"/>
</svg>